{"glyphs":{":":{"x_min":0,"x_max":175,"ha":175,"o":"m 33 302 q 33 325 49 340 q 65 355 85 355 q 104 355 120 340 q 136 325 136 302 q 136 279 120 264 q 104 250 85 250 q 65 250 49 264 q 33 279 33 302 z m 33 52 q 33 75 49 90 q 65 105 85 105 q 104 105 120 90 q 136 75 136 52 q 136 29 120 14 q 104 0 85 0 q 65 0 49 14 q 33 29 33 52 z"},"$":{"x_min":0,"x_max":567,"ha":567,"o":"m 345 546 l 345 605 q 331 611 316 616 q 300 621 281 623 l 281 398 q 313 387 345 373 q 377 359 402 336 q 428 313 444 277 q 459 241 459 187 q 459 146 445 112 q 431 79 407 54 q 383 29 350 14 q 318 -2 281 -6 l 281 -68 l 197 -68 l 197 -3 q 137 6 90 33 q 43 60 21 93 l 21 209 l 100 209 l 100 120 q 120 105 144 93 q 168 81 197 75 l 197 343 q 168 352 142 364 q 116 376 96 396 q 75 415 62 444 q 50 473 49 517 q 48 545 56 574 q 63 604 81 630 q 99 655 128 674 q 156 692 197 700 l 197 764 l 281 764 l 281 702 q 313 699 350 687 q 386 675 424 644 l 424 546 z m 376 188 q 376 216 368 236 q 361 257 348 272 q 336 287 318 298 q 301 308 281 316 l 281 75 q 321 84 348 112 q 376 140 376 188 z m 132 514 q 132 480 150 460 q 168 441 197 427 l 197 616 q 164 603 148 576 q 132 548 132 514 z"},"?":{"x_min":0,"x_max":452,"ha":452,"o":"m 114 552 q 96 559 78 566 q 59 572 41 579 q 48 601 61 628 q 74 654 97 677 q 120 700 155 716 q 190 732 241 732 q 282 732 318 716 q 354 701 380 674 q 407 648 422 612 q 437 577 437 537 q 437 481 410 440 q 384 398 339 364 q 325 354 309 344 q 293 333 279 320 q 265 306 256 288 q 247 269 247 242 l 247 164 l 163 164 l 163 261 q 163 293 173 313 q 183 333 200 348 q 217 364 238 378 q 259 391 282 409 q 318 436 335 468 q 352 500 352 537 q 352 586 322 618 q 291 651 241 651 q 185 651 157 626 q 129 601 114 552 z m 204 0 q 184 0 168 14 q 152 29 152 52 q 152 75 168 90 q 184 105 204 105 q 223 105 239 90 q 255 75 255 52 q 255 29 239 14 q 223 0 204 0 z"},"<":{"x_min":0,"x_max":680,"ha":680,"o":"m 553 99 l 553 -14 q 443 49 334 112 q 226 175 116 238 q 226 301 334 364 q 443 427 553 490 l 553 377 q 493 342 432 308 q 372 273 312 238 q 372 203 432 168 q 493 134 553 99 z"},"'":{"x_min":0,"x_max":163,"ha":163,"o":"m 42 472 l 42 720 l 126 720 q 125 657 124 596 q 123 535 122 472 z"},"=":{"x_min":0,"x_max":708,"ha":708,"o":"m 606 193 l 606 112 l 100 112 l 100 193 z m 606 387 l 606 306 l 100 306 l 100 387 z"},"a":{"x_min":0,"x_max":547,"ha":547,"o":"m 35 187 q 35 226 50 262 q 66 298 93 325 q 120 352 157 368 q 194 384 236 384 q 263 384 286 376 q 309 368 326 358 q 343 349 353 340 q 363 331 363 328 q 363 339 365 351 q 367 363 367 375 l 436 375 l 436 79 l 512 79 l 512 0 l 363 0 l 363 20 l 363 40 q 362 37 353 29 q 344 21 328 12 q 311 4 288 -2 q 265 -9 236 -9 q 194 -9 157 6 q 120 22 93 49 q 66 76 50 112 q 35 147 35 187 z m 119 188 q 119 139 152 106 q 184 72 236 72 q 288 72 320 106 q 353 139 353 188 q 353 238 320 270 q 288 303 236 303 q 184 303 152 270 q 119 238 119 188 z"},"L":{"x_min":0,"x_max":571,"ha":571,"o":"m 35 79 l 91 79 l 91 621 l 35 621 l 35 700 l 257 700 l 257 621 l 174 621 l 174 79 l 457 79 l 457 154 l 536 154 l 536 0 l 35 0 z"},"3":{"x_min":0,"x_max":515,"ha":515,"o":"m 154 326 l 293 568 l 182 568 l 182 521 l 103 521 l 103 650 l 432 650 l 289 412 q 322 400 349 380 q 376 361 396 335 q 416 309 427 277 q 438 245 438 209 q 438 164 420 124 q 403 85 373 56 q 343 26 304 9 q 264 -8 219 -8 q 171 -8 130 12 q 89 31 59 63 l 120 120 q 138 98 164 86 q 189 73 219 73 q 247 73 272 84 q 296 95 314 114 q 333 132 344 156 q 355 181 355 209 q 355 237 344 262 q 333 286 314 304 q 296 322 272 332 q 247 343 219 343 q 183 343 154 326 z"},";":{"x_min":0,"x_max":201,"ha":201,"o":"m 64 302 q 64 325 80 340 q 96 355 116 355 q 135 355 151 340 q 167 325 167 302 q 167 279 151 264 q 135 250 116 250 q 96 250 80 264 q 64 279 64 302 z m 149 86 q 127 34 106 -17 q 85 -68 63 -120 l -12 -120 q 8 -68 26 -17 q 45 34 65 86 z"},"J":{"x_min":0,"x_max":311,"ha":311,"o":"m 35 700 l 276 700 l 276 90 q 276 34 258 -9 q 239 -52 207 -82 q 175 -111 130 -127 q 86 -143 35 -144 l 35 -65 q 104 -61 148 -21 q 193 19 193 93 l 193 621 l 35 621 z"},"V":{"x_min":0,"x_max":810,"ha":810,"o":"m 35 700 l 277 700 l 277 621 l 205 621 q 252 512 298 403 q 343 294 390 185 l 399 152 l 408 185 q 455 294 500 402 q 546 511 592 621 l 533 621 l 533 700 l 775 700 l 775 621 l 676 621 q 607 456 538 294 q 468 133 399 -32 q 330 133 260 294 q 191 456 122 621 l 35 621 z"},"\"":{"x_min":0,"x_max":335,"ha":335,"o":"m 196 472 l 196 720 l 279 720 q 278 657 277 596 q 276 535 275 472 z m 63 472 l 63 720 l 146 720 q 145 657 144 596 q 143 535 142 472 z"},"7":{"x_min":0,"x_max":469,"ha":469,"o":"m 427 650 l 135 0 l 40 0 l 297 568 l 93 568 l 93 521 l 14 521 l 14 650 z"},"S":{"x_min":0,"x_max":478,"ha":478,"o":"m 21 93 l 21 209 l 100 209 l 100 120 q 126 100 162 86 q 198 71 243 71 q 269 71 293 78 q 317 86 336 100 q 354 115 365 137 q 376 159 376 188 q 376 240 352 268 q 328 296 292 312 q 256 327 214 338 q 172 349 136 368 q 99 387 74 421 q 50 455 49 517 q 48 550 58 583 q 68 616 91 643 q 114 670 152 687 q 190 704 245 704 q 263 704 284 702 q 305 700 328 694 q 351 688 376 676 q 400 664 424 644 l 424 546 l 345 546 l 345 605 q 326 613 301 619 q 276 625 246 625 q 188 625 160 592 q 132 559 132 514 q 132 484 146 466 q 160 447 183 434 q 206 422 236 413 q 265 404 296 394 q 326 383 356 368 q 385 354 408 330 q 431 307 445 272 q 459 238 459 187 q 459 142 442 106 q 426 70 398 44 q 369 19 331 6 q 293 -8 251 -8 q 213 -8 177 0 q 141 9 111 23 q 81 37 58 55 q 34 73 21 93 z"},"}":{"x_min":0,"x_max":320,"ha":320,"o":"m 290 337 l 290 256 q 266 255 250 242 q 235 228 226 208 q 218 188 214 164 q 211 141 211 121 l 211 -31 q 211 -78 202 -102 q 192 -126 176 -136 q 160 -147 138 -148 q 117 -149 93 -149 l 30 -149 l 30 -68 l 74 -68 q 89 -68 99 -64 q 109 -60 115 -49 q 121 -38 124 -18 q 126 3 126 35 l 126 164 q 126 194 132 216 q 139 239 149 255 q 159 271 170 282 q 182 292 191 298 q 181 304 170 314 q 158 325 148 341 q 139 357 132 380 q 126 402 126 433 l 126 562 q 126 594 124 614 q 121 634 115 646 q 109 657 99 661 q 89 665 74 665 l 30 665 l 30 746 l 93 746 q 116 746 138 745 q 159 744 176 734 q 192 723 202 699 q 211 675 211 628 l 211 472 q 211 452 214 428 q 218 405 226 385 q 235 365 250 352 q 266 338 290 337 z"},"Z":{"x_min":0,"x_max":629,"ha":629,"o":"m 594 242 l 594 0 l 35 0 l 35 80 l 463 621 l 51 621 l 51 735 l 134 735 l 134 700 l 565 700 l 565 621 l 137 80 l 515 80 l 515 242 z"},"x":{"x_min":0,"x_max":526,"ha":526,"o":"m 35 375 l 257 375 l 257 296 l 234 296 l 277 237 l 319 296 l 292 296 l 292 375 l 491 375 l 491 296 l 418 296 l 329 173 q 346 149 364 126 q 381 102 399 79 l 491 79 l 491 0 l 269 0 l 269 79 l 294 79 q 283 93 274 106 q 264 119 254 133 q 244 119 234 106 q 224 93 214 79 l 234 79 l 234 0 l 35 0 l 35 79 l 112 79 q 135 110 158 140 q 180 171 203 202 q 186 225 168 249 q 151 273 134 296 l 35 296 z"},")":{"x_min":0,"x_max":400,"ha":400,"o":"m 312 288 q 312 213 298 145 q 284 77 261 19 q 238 -39 208 -86 q 178 -134 147 -167 q 129 -162 110 -156 q 92 -151 74 -146 q 103 -113 130 -68 q 158 -23 180 32 q 202 87 215 151 q 228 215 228 286 q 228 357 215 421 q 202 485 180 540 q 158 595 130 640 q 103 685 74 718 q 92 724 110 730 q 129 737 147 743 q 178 710 208 662 q 238 615 261 557 q 284 499 298 431 q 312 363 312 288 z"},"&":{"x_min":0,"x_max":700,"ha":700,"o":"m 422 375 l 601 375 l 601 294 l 506 294 l 506 254 q 506 246 506 234 q 507 221 507 206 q 507 190 506 174 q 504 158 501 145 l 576 24 l 511 -19 l 461 63 q 433 30 393 10 q 353 -9 305 -9 q 263 -9 226 6 q 190 22 163 49 q 136 76 120 112 q 105 147 105 188 q 105 224 117 256 q 129 288 151 314 q 173 339 202 356 q 231 374 266 380 l 196 496 q 178 526 170 558 q 163 590 168 620 q 173 651 192 678 q 210 706 243 726 q 271 743 300 746 q 330 750 358 744 q 386 739 410 728 q 435 717 454 705 l 421 640 q 411 646 396 654 q 380 661 363 665 q 346 669 329 669 q 312 669 299 660 q 258 634 254 594 q 249 554 273 515 l 422 273 l 422 276 z m 188 188 q 188 139 220 106 q 253 72 305 72 q 343 72 372 91 q 400 110 413 141 l 314 303 q 258 303 223 272 q 188 242 188 188 z"},"_":{"x_min":0,"x_max":600,"ha":600,"o":"m 500 0 l 100 0 l 100 81 l 500 81 z"},"v":{"x_min":0,"x_max":584,"ha":584,"o":"m 35 375 l 257 375 l 257 296 l 205 296 q 231 252 255 208 q 279 164 293 120 q 307 164 330 208 q 354 252 380 296 l 320 296 l 320 375 l 549 375 l 549 296 l 466 296 q 423 215 380 136 q 336 57 293 -23 q 249 57 206 136 q 163 216 119 296 l 35 296 z"},"O":{"x_min":0,"x_max":786,"ha":786,"o":"m 35 349 q 35 422 63 488 q 91 553 140 602 q 188 651 253 680 q 318 708 392 708 q 465 708 530 680 q 596 651 645 602 q 694 553 722 488 q 751 422 751 349 q 751 275 722 210 q 694 145 645 96 q 596 48 530 20 q 465 -8 392 -8 q 318 -8 253 20 q 188 48 140 96 q 91 145 63 210 q 35 275 35 349 z m 118 349 q 118 291 140 240 q 161 190 198 152 q 236 115 286 93 q 336 71 393 71 q 450 71 500 93 q 550 115 588 152 q 625 190 646 240 q 668 291 668 349 q 668 407 646 458 q 625 508 588 546 q 550 584 500 606 q 450 628 393 628 q 336 628 286 606 q 236 584 198 546 q 161 508 140 458 q 118 407 118 349 z"},"(":{"x_min":0,"x_max":424,"ha":424,"o":"m 115 291 q 115 366 129 434 q 143 502 166 560 q 189 618 218 666 q 248 713 280 746 q 298 740 316 734 q 335 729 353 723 q 324 690 296 645 q 269 600 247 545 q 225 490 212 426 q 199 362 199 291 q 199 220 212 156 q 225 92 247 37 q 269 -18 296 -63 q 324 -108 353 -141 q 335 -147 316 -152 q 298 -158 280 -164 q 248 -131 218 -84 q 189 -36 166 22 q 143 80 129 148 q 115 216 115 291 z"},"C":{"x_min":0,"x_max":610,"ha":610,"o":"m 496 546 l 496 607 q 446 629 392 629 q 335 629 286 607 q 236 585 198 546 q 161 508 140 457 q 118 406 118 349 q 118 292 140 241 q 161 190 198 152 q 236 115 286 93 q 335 71 392 71 q 466 71 529 108 l 574 42 q 534 19 488 6 q 443 -8 392 -8 q 318 -8 253 20 q 188 48 140 96 q 91 145 63 210 q 35 275 35 349 q 35 423 63 488 q 91 554 140 602 q 188 651 253 680 q 318 708 392 708 q 443 708 488 695 q 534 682 575 658 l 575 546 z"},"W":{"x_min":0,"x_max":1178,"ha":1178,"o":"m 35 700 l 277 700 l 277 621 l 205 621 q 252 512 298 403 q 343 294 390 185 l 399 152 q 411 197 428 242 q 446 286 466 330 q 485 375 506 419 q 526 463 544 506 q 532 535 520 564 q 507 592 495 621 l 403 621 l 403 700 l 645 700 l 645 621 l 578 621 q 625 512 670 403 q 716 294 763 185 l 772 152 l 781 185 q 828 294 874 402 q 919 511 965 621 l 901 621 l 901 700 l 1143 700 l 1143 621 l 1049 621 q 980 456 910 294 q 841 133 772 -32 l 595 385 l 585 420 q 571 364 549 306 q 527 249 501 192 q 475 135 448 78 q 422 22 399 -32 q 330 133 260 294 q 191 456 122 621 l 35 621 z"},"A":{"x_min":0,"x_max":788,"ha":788,"o":"m 35 79 l 117 79 q 186 244 256 406 q 325 567 394 732 q 463 567 532 406 q 602 244 671 79 l 753 79 l 753 0 l 531 0 l 531 79 l 587 79 q 566 129 546 178 q 525 227 504 277 l 284 277 l 200 79 l 257 79 l 257 0 l 35 0 z m 403 515 l 393 548 q 392 546 391 541 q 390 536 388 530 q 386 523 383 515 q 370 486 359 458 q 349 434 338 406 q 327 378 318 356 l 470 356 z"},"f":{"x_min":0,"x_max":336,"ha":336,"o":"m 35 79 l 96 79 l 96 294 l 35 294 l 35 375 l 95 375 l 95 517 q 95 573 114 616 q 132 659 164 688 q 196 718 240 734 q 285 749 336 751 l 336 672 q 267 668 222 628 q 178 588 178 514 l 178 375 l 296 375 l 296 294 l 178 294 l 178 79 l 257 79 l 257 0 l 35 0 z"},"Q":{"x_min":0,"x_max":808,"ha":808,"o":"m 118 349 q 118 292 140 241 q 161 190 198 152 q 236 115 286 93 q 335 71 392 71 q 449 71 499 93 q 549 115 586 152 q 624 190 646 241 q 668 292 668 349 q 668 406 646 457 q 624 508 586 546 q 549 585 499 607 q 449 629 392 629 q 335 629 286 607 q 236 585 198 546 q 161 508 140 457 q 118 406 118 349 z m 35 349 q 35 423 63 488 q 91 554 140 602 q 188 651 253 680 q 318 708 392 708 q 466 708 532 680 q 597 651 646 602 q 694 554 722 488 q 751 423 751 349 q 751 268 717 198 q 683 128 626 79 l 773 79 l 773 0 l 466 0 q 428 -8 392 -8 q 318 -8 253 20 q 188 48 140 96 q 91 145 63 210 q 35 275 35 349 z"},"w":{"x_min":0,"x_max":830,"ha":830,"o":"m 581 375 l 795 375 l 795 296 l 719 296 q 679 215 638 136 q 598 57 558 -23 l 422 246 l 286 -23 q 245 57 205 136 q 165 216 124 296 l 35 296 l 35 375 l 242 375 l 242 296 l 207 296 q 229 252 250 208 q 271 165 286 120 q 297 154 312 186 q 328 219 344 252 q 349 263 354 274 q 360 285 365 296 l 314 296 l 314 375 l 536 375 l 536 296 l 479 296 q 501 252 522 208 q 543 165 558 120 q 573 165 594 208 q 614 252 637 296 l 581 296 z"},"-":{"x_min":0,"x_max":300,"ha":300,"o":"m 53 147 l 53 228 l 237 228 l 237 147 z"},"E":{"x_min":0,"x_max":571,"ha":571,"o":"m 35 79 l 91 79 l 91 621 l 35 621 l 35 700 l 522 700 l 522 546 l 443 546 l 443 621 l 174 621 l 174 392 l 483 392 l 483 313 l 174 313 l 174 79 l 457 79 l 457 154 l 536 154 l 536 0 l 35 0 z"},"s":{"x_min":0,"x_max":332,"ha":332,"o":"m 121 120 l 121 81 q 133 76 144 74 q 156 73 173 73 q 174 73 180 74 q 187 74 195 78 q 203 81 210 88 q 216 95 217 109 q 218 127 207 136 q 196 146 178 152 q 161 159 140 166 q 119 172 100 184 q 82 195 70 216 q 58 237 58 272 q 58 303 70 324 q 82 345 100 358 q 118 372 139 378 q 160 384 177 384 q 187 384 202 382 q 216 380 231 375 q 246 370 260 362 q 275 354 286 342 l 286 255 l 212 255 l 212 298 q 197 303 182 303 q 160 303 150 294 q 140 284 142 268 q 144 256 157 248 q 170 241 188 234 q 205 227 225 218 q 245 209 262 196 q 279 182 290 162 q 301 141 301 110 q 301 96 296 76 q 290 56 276 37 q 262 18 237 5 q 212 -8 172 -8 q 135 -8 101 2 q 67 11 47 33 l 47 120 z"},">":{"x_min":0,"x_max":650,"ha":650,"o":"m 116 -14 l 116 99 q 176 134 236 168 q 297 203 357 238 q 297 273 236 308 q 176 342 116 377 l 116 490 q 226 427 334 364 q 443 301 553 238 q 443 175 334 112 q 226 49 116 -14 z"},"l":{"x_min":0,"x_max":292,"ha":292,"o":"m 35 79 l 111 79 l 111 671 l 45 671 l 45 750 l 194 750 l 194 79 l 257 79 l 257 0 l 35 0 z"},"8":{"x_min":0,"x_max":510,"ha":510,"o":"m 180 498 q 180 466 202 445 q 224 424 255 424 q 287 424 308 445 q 330 466 330 498 q 330 530 308 554 q 287 577 255 577 q 224 577 202 554 q 180 530 180 498 z m 122 209 q 122 181 132 156 q 142 132 160 114 q 178 95 202 84 q 226 73 253 73 q 281 73 306 84 q 330 95 348 114 q 367 132 378 156 q 389 181 389 209 q 389 236 378 260 q 368 284 350 302 q 333 320 309 331 q 285 342 258 343 q 229 343 204 332 q 179 322 161 304 q 143 286 132 262 q 122 237 122 209 z m 36 209 q 36 267 64 314 q 92 362 138 391 q 118 411 106 438 q 95 466 95 498 q 95 531 108 560 q 120 589 142 611 q 163 633 192 646 q 220 658 253 658 q 286 658 315 646 q 344 633 366 611 q 388 589 400 560 q 413 531 413 498 q 413 466 401 438 q 389 411 369 391 q 415 362 444 314 q 472 267 472 209 q 472 164 454 124 q 437 85 407 56 q 377 26 338 9 q 298 -8 253 -8 q 208 -8 168 9 q 129 26 100 56 q 70 85 53 124 q 36 164 36 209 z"},"\\":{"x_min":0,"x_max":385,"ha":385,"o":"m 94 736 q 164 546 233 358 q 302 171 372 -19 l 278 -19 q 208 171 139 358 q 70 546 0 736 z"},"e":{"x_min":0,"x_max":450,"ha":450,"o":"m 235 303 q 184 303 152 272 q 120 242 118 196 q 165 213 212 230 q 258 248 305 265 q 291 282 274 292 q 256 303 235 303 z m 411 218 q 343 193 276 168 q 208 143 140 118 q 155 97 180 84 q 204 72 235 72 q 281 72 311 104 l 362 44 q 337 19 305 5 q 273 -9 235 -9 q 193 -9 156 6 q 120 22 93 49 q 66 76 50 112 q 35 147 35 188 q 35 228 50 264 q 66 300 93 326 q 120 353 156 368 q 193 384 235 384 q 266 384 294 372 q 323 359 346 337 q 368 315 385 284 q 402 254 411 218 z"},"b":{"x_min":0,"x_max":547,"ha":547,"o":"m 35 79 l 111 79 l 111 671 l 45 671 l 45 750 l 194 750 l 194 362 q 192 354 189 346 q 186 339 184 331 q 185 334 196 343 q 206 352 223 361 q 240 370 262 377 q 285 384 311 384 q 353 384 390 368 q 427 353 454 326 q 481 299 496 264 q 512 228 512 188 q 512 148 496 112 q 481 76 454 49 q 427 22 390 6 q 353 -9 311 -9 q 282 -9 259 -2 q 236 4 220 12 q 203 21 194 29 q 185 37 184 40 l 184 20 l 184 0 l 35 0 z m 428 188 q 428 238 396 270 q 363 303 311 303 q 259 303 226 270 q 194 238 194 188 q 194 139 226 106 q 259 72 311 72 q 363 72 396 106 q 428 139 428 188 z"},"%":{"x_min":0,"x_max":726,"ha":726,"o":"m 478 111 q 478 91 490 78 q 502 65 522 65 q 542 65 554 78 q 566 91 566 111 q 566 131 554 144 q 542 156 522 156 q 502 156 490 144 q 478 131 478 111 z m 522 -16 q 496 -16 472 -6 q 449 4 432 21 q 414 38 404 61 q 394 84 394 111 q 394 137 404 160 q 414 183 432 200 q 449 217 472 227 q 496 237 522 237 q 548 237 571 227 q 594 217 612 200 q 629 183 640 160 q 650 137 650 111 q 650 84 640 61 q 629 38 612 21 q 594 4 571 -6 q 548 -16 522 -16 z m 174 389 q 174 369 186 356 q 198 343 218 343 q 238 343 250 356 q 262 369 262 389 q 262 409 250 422 q 238 434 218 434 q 198 434 186 422 q 174 409 174 389 z m 218 262 q 192 262 168 272 q 145 282 128 299 q 110 316 100 339 q 90 362 90 389 q 90 415 100 438 q 110 461 128 478 q 145 495 168 505 q 192 515 218 515 q 244 515 267 505 q 290 495 308 478 q 325 461 336 438 q 346 415 346 389 q 346 362 336 339 q 325 316 308 299 q 290 282 267 272 q 244 262 218 262 z m 174 0 q 249 126 323 250 q 397 374 472 500 l 563 500 q 488 374 414 250 q 340 126 265 0 z"},"m":{"x_min":0,"x_max":870,"ha":870,"o":"m 613 79 l 689 79 l 689 234 q 687 261 670 280 q 652 300 614 302 q 588 302 564 293 q 541 284 523 268 q 505 252 494 230 q 483 208 483 182 l 483 79 l 546 79 l 546 0 l 324 0 l 324 79 l 400 79 l 400 234 q 398 261 380 280 q 363 300 325 302 q 299 302 276 293 q 252 284 234 268 q 216 252 205 230 q 194 208 194 182 l 194 79 l 257 79 l 257 0 l 35 0 l 35 79 l 111 79 l 111 296 l 45 296 l 45 375 l 184 375 l 184 366 q 186 342 188 322 q 189 303 191 279 q 212 327 254 354 q 297 382 354 384 q 409 384 442 356 q 476 329 482 284 q 504 330 546 356 q 588 382 643 384 q 702 384 736 353 q 770 322 772 272 l 772 79 l 835 79 l 835 0 l 613 0 z"},"#":{"x_min":0,"x_max":571,"ha":571,"o":"m 223 371 l 211 269 l 311 269 l 323 371 z m 279 0 q 284 48 290 94 q 296 140 301 188 l 201 188 q 196 140 190 94 q 184 48 179 0 l 95 0 q 100 48 106 94 q 112 140 117 188 l 25 188 q 27 208 30 228 q 33 249 35 269 l 127 269 l 139 371 l 48 371 q 50 391 52 412 q 54 432 56 452 l 148 452 q 154 500 160 548 q 166 595 172 643 l 256 643 q 250 595 244 548 q 238 500 232 452 l 332 452 q 338 500 344 548 q 350 595 356 643 l 440 643 q 434 595 428 548 q 422 500 416 452 l 518 452 q 516 432 514 412 q 512 391 510 371 l 407 371 l 395 269 l 497 269 q 495 249 492 228 q 489 208 487 188 l 385 188 q 380 140 374 94 q 368 48 363 0 z"},",":{"x_min":0,"x_max":200,"ha":200,"o":"m 163 86 q 141 34 120 -17 q 99 -68 77 -120 l 2 -120 q 22 -68 40 -17 q 59 34 79 86 z"},"n":{"x_min":0,"x_max":580,"ha":580,"o":"m 323 79 l 400 79 l 400 234 q 398 261 380 280 q 363 300 325 302 q 299 302 276 293 q 252 284 234 268 q 216 252 205 230 q 194 208 194 182 l 194 79 l 257 79 l 257 0 l 35 0 l 35 79 l 111 79 l 111 296 l 45 296 l 45 375 l 184 375 l 184 366 q 186 342 188 322 q 189 303 191 279 q 211 327 256 356 q 300 384 354 384 q 413 384 447 353 q 481 322 483 272 l 483 79 l 545 79 l 545 0 l 323 0 z"},"h":{"x_min":0,"x_max":580,"ha":580,"o":"m 323 79 l 400 79 l 400 234 q 398 261 380 280 q 363 300 325 302 q 299 302 276 293 q 252 284 234 268 q 216 252 205 230 q 194 208 194 182 l 194 79 l 257 79 l 257 0 l 35 0 l 35 79 l 111 79 l 111 671 l 35 671 l 35 750 l 194 750 l 194 324 l 191 279 q 213 328 255 354 q 297 381 354 384 q 413 384 447 353 q 481 322 483 272 l 483 79 l 545 79 l 545 0 l 323 0 z"},"z":{"x_min":0,"x_max":435,"ha":435,"o":"m 400 138 l 400 0 l 35 0 l 35 81 q 66 109 94 136 q 121 162 148 188 q 174 214 201 241 q 228 268 260 296 l 47 296 l 47 410 l 121 410 l 121 375 l 377 375 l 377 294 q 345 266 318 240 q 291 213 264 187 q 238 161 210 135 q 183 109 152 81 l 326 81 l 326 138 z"},"B":{"x_min":0,"x_max":542,"ha":542,"o":"m 35 79 l 80 79 l 80 621 l 35 621 l 35 700 l 263 700 q 312 700 352 690 q 393 680 422 659 q 450 638 466 604 q 482 571 482 525 q 482 463 452 416 q 423 369 363 352 q 391 346 418 332 q 444 318 464 296 q 483 274 495 245 q 507 216 507 180 q 507 135 488 102 q 469 68 438 46 q 406 23 365 12 q 324 0 281 0 l 35 0 z m 163 313 l 163 79 l 274 79 q 305 79 332 86 q 359 93 380 108 q 400 122 412 143 q 424 164 424 193 q 424 224 410 247 q 396 270 374 284 q 351 299 321 306 q 291 313 260 313 z m 163 621 l 163 392 l 271 392 q 330 392 364 425 q 399 458 399 512 q 399 571 363 596 q 327 621 269 621 z"},"K":{"x_min":0,"x_max":686,"ha":686,"o":"m 429 79 l 481 79 q 424 150 368 220 q 313 291 257 363 l 195 304 l 195 79 l 277 79 l 277 0 l 35 0 l 35 79 l 112 79 l 112 621 l 35 621 l 35 700 l 257 700 l 257 621 l 195 621 l 195 426 q 194 418 194 410 q 193 402 192 394 l 211 417 l 425 621 l 388 621 l 388 700 l 610 700 l 610 621 l 527 621 l 312 416 q 379 331 446 248 q 512 164 579 79 l 651 79 l 651 0 l 429 0 z"},"R":{"x_min":0,"x_max":576,"ha":576,"o":"m 35 79 l 80 79 l 80 621 l 35 621 l 35 700 l 245 700 q 279 700 320 690 q 362 679 398 656 q 434 633 458 597 q 482 561 482 510 q 482 435 444 384 q 407 334 335 318 l 447 79 l 541 79 l 541 0 l 395 0 l 248 312 l 205 312 l 163 312 l 163 79 l 277 79 l 277 0 l 35 0 z m 163 392 l 250 392 q 294 392 322 404 q 351 415 368 432 q 385 449 392 470 q 399 491 399 510 q 399 532 388 552 q 376 572 356 588 q 337 603 310 612 q 282 621 251 621 l 163 621 z"},"T":{"x_min":0,"x_max":623,"ha":623,"o":"m 185 79 l 271 79 l 271 621 l 114 621 l 114 546 l 35 546 l 35 700 l 588 700 l 588 546 l 509 546 l 509 621 l 354 621 l 354 79 l 427 79 l 427 0 l 185 0 z"},"P":{"x_min":0,"x_max":517,"ha":517,"o":"m 35 79 l 80 79 l 80 621 l 35 621 l 35 700 l 245 700 q 279 700 320 690 q 362 679 398 656 q 434 633 458 597 q 482 561 482 510 q 482 419 428 366 q 374 312 272 312 l 163 312 l 163 79 l 277 79 l 277 0 l 35 0 z m 163 392 l 250 392 q 294 392 322 404 q 351 415 368 432 q 385 449 392 470 q 399 491 399 510 q 399 532 388 552 q 376 572 356 588 q 337 603 310 612 q 282 621 251 621 l 163 621 z"},"|":{"x_min":0,"x_max":271,"ha":271,"o":"m 91 -232 l 91 700 l 175 700 l 175 -232 z"},"t":{"x_min":0,"x_max":335,"ha":335,"o":"m 119 619 l 202 619 l 202 375 l 300 375 l 300 294 l 202 294 l 202 79 l 277 79 l 277 0 l 119 0 l 119 294 l 35 294 l 35 375 l 119 375 z"},"M":{"x_min":0,"x_max":976,"ha":976,"o":"m 829 700 l 941 700 l 941 621 l 854 621 l 854 79 l 941 79 l 941 0 l 699 0 l 699 79 l 771 79 l 771 470 q 772 478 772 486 q 773 494 774 502 q 766 491 758 479 q 750 467 742 456 q 682 371 616 290 q 551 208 488 125 l 220 475 l 202 502 q 203 494 204 486 q 204 478 205 470 l 205 79 l 277 79 l 277 0 l 35 0 l 35 79 l 122 79 l 122 621 l 35 621 l 35 700 l 147 700 q 233 589 318 478 q 402 368 488 257 q 574 368 658 478 q 743 589 829 700 z"},"g":{"x_min":0,"x_max":547,"ha":547,"o":"m 367 375 l 512 375 l 512 296 l 436 296 l 436 -60 q 436 -100 420 -134 q 405 -169 378 -194 q 351 -220 315 -235 q 279 -250 237 -250 q 192 -250 150 -230 q 108 -211 78 -190 l 133 -122 q 153 -137 180 -150 q 206 -164 235 -164 q 261 -164 282 -155 q 304 -146 320 -130 q 336 -115 344 -94 q 353 -72 353 -47 l 353 20 q 355 24 357 28 q 359 33 361 38 q 358 33 348 26 q 338 18 322 10 q 306 3 284 -2 q 263 -8 236 -8 q 194 -8 157 8 q 120 23 93 50 q 66 76 50 112 q 35 147 35 187 q 35 226 50 262 q 66 298 93 325 q 120 352 157 368 q 194 384 236 384 q 263 384 286 376 q 309 368 326 358 q 343 349 353 340 q 363 331 363 328 q 363 339 365 351 q 367 363 367 375 z m 119 188 q 119 139 152 106 q 184 72 236 72 q 288 72 320 106 q 353 139 353 188 q 353 238 320 270 q 288 303 236 303 q 184 303 152 270 q 119 238 119 188 z"},"j":{"x_min":0,"x_max":212,"ha":212,"o":"m 35 375 l 177 375 l 177 0 q 177 -61 156 -106 q 135 -152 97 -181 l 40 -119 q 66 -99 80 -69 q 94 -39 94 3 l 94 296 l 35 296 z m 87 520 q 87 543 103 558 q 119 573 139 573 q 158 573 174 558 q 190 543 190 520 q 190 497 174 482 q 158 468 139 468 q 119 468 103 482 q 87 497 87 520 z"},"i":{"x_min":0,"x_max":292,"ha":292,"o":"m 35 79 l 105 79 l 105 296 l 35 296 l 35 375 l 188 375 l 188 79 l 257 79 l 257 0 l 35 0 z m 96 520 q 96 543 112 558 q 128 573 148 573 q 167 573 183 558 q 199 543 199 520 q 199 497 183 482 q 167 468 148 468 q 128 468 112 482 q 96 497 96 520 z"},"y":{"x_min":0,"x_max":617,"ha":617,"o":"m 92 -171 l 182 -171 q 203 -128 224 -85 q 246 -42 268 0 q 230 75 194 148 q 157 221 119 296 l 35 296 l 35 375 l 257 375 l 257 296 l 204 296 q 233 241 262 186 q 291 130 310 74 q 329 130 358 186 q 386 241 415 296 l 353 296 l 353 375 l 582 375 l 582 296 l 500 296 q 441 178 382 62 q 324 -53 265 -171 l 314 -171 l 314 -250 l 92 -250 z"},"@":{"x_min":0,"x_max":990,"ha":990,"o":"m 368 188 q 368 139 400 106 q 433 72 485 72 q 537 72 570 106 q 602 139 602 188 q 602 238 570 270 q 537 303 485 303 q 433 303 400 270 q 368 238 368 188 z m 910 188 q 906 135 886 100 q 865 64 837 42 q 809 19 777 10 q 745 0 718 0 l 612 0 l 612 20 l 612 40 q 611 37 602 29 q 593 21 576 13 q 560 5 537 -2 q 514 -9 485 -9 q 443 -9 406 6 q 369 22 342 49 q 315 76 300 112 q 284 147 284 187 q 284 226 300 262 q 315 297 342 324 q 369 351 406 366 q 443 382 485 382 q 511 382 534 375 q 556 368 573 358 q 590 349 600 340 q 610 331 612 328 q 612 339 614 351 q 616 363 616 375 l 685 375 l 685 81 l 718 81 q 738 81 757 86 q 776 92 791 104 q 806 117 815 138 q 824 158 826 188 q 826 259 800 321 q 773 383 727 430 q 681 476 620 502 q 559 529 489 529 q 418 529 356 502 q 295 476 248 430 q 202 383 176 321 q 149 259 149 188 q 149 117 176 56 q 202 -6 248 -52 q 295 -98 356 -124 q 418 -151 489 -151 q 548 -151 600 -134 q 653 -116 698 -85 q 711 -100 723 -114 q 735 -129 748 -144 q 723 -166 692 -182 q 661 -199 626 -210 q 592 -221 557 -226 q 522 -232 489 -232 q 401 -232 324 -199 q 247 -166 190 -109 q 132 -52 98 25 q 65 102 65 189 q 65 276 98 353 q 132 430 190 487 q 247 544 324 577 q 401 610 489 610 q 576 610 653 577 q 730 544 787 487 q 844 430 877 353 q 910 276 910 188 z"},".":{"x_min":0,"x_max":163,"ha":163,"o":"m 33 52 q 33 75 49 90 q 65 105 85 105 q 104 105 120 90 q 136 75 136 52 q 136 29 120 14 q 104 0 85 0 q 65 0 49 14 q 33 29 33 52 z"},"p":{"x_min":0,"x_max":548,"ha":548,"o":"m 45 -171 l 112 -171 l 112 296 l 35 296 l 35 375 l 181 375 q 181 364 182 352 q 183 339 185 328 q 186 331 196 340 q 207 350 224 360 q 241 369 264 376 q 286 384 312 384 q 354 384 391 368 q 428 353 455 326 q 482 299 498 264 q 513 228 513 188 q 513 148 498 112 q 482 76 455 49 q 428 22 391 6 q 354 -9 312 -9 q 284 -9 262 -3 q 240 3 224 11 q 208 19 198 26 q 189 34 186 38 q 188 33 190 28 q 193 24 195 19 l 195 -171 l 267 -171 l 267 -250 l 45 -250 z m 429 188 q 429 238 396 270 q 364 303 312 303 q 260 303 228 270 q 195 238 195 188 q 195 139 228 106 q 260 72 312 72 q 364 72 396 106 q 429 139 429 188 z"},"X":{"x_min":0,"x_max":694,"ha":694,"o":"m 35 700 l 277 700 l 277 621 l 222 621 q 250 577 278 534 q 306 492 334 449 l 347 422 l 360 449 l 472 621 l 417 621 l 417 700 l 659 700 l 659 621 l 573 621 q 529 553 486 486 q 443 418 398 351 q 443 282 487 215 q 531 148 576 79 l 659 79 l 659 0 l 417 0 l 417 79 l 472 79 l 356 258 q 352 265 349 272 q 346 279 342 286 l 329 258 q 300 213 271 168 q 242 124 213 79 l 277 79 l 277 0 l 35 0 l 35 79 l 110 79 l 292 357 l 120 621 l 35 621 z"},"*":{"x_min":0,"x_max":335,"ha":335,"o":"m 250 575 l 313 539 q 302 521 292 502 q 282 484 271 466 q 255 475 240 484 q 225 494 209 503 q 209 486 208 468 q 208 451 208 434 l 128 434 l 128 504 q 113 495 98 486 q 82 478 67 469 q 56 487 46 506 q 36 524 25 542 q 41 550 56 559 q 71 568 87 576 q 72 585 56 594 q 41 604 26 613 l 65 682 q 81 673 96 664 q 112 654 128 645 l 128 720 l 212 720 q 212 701 212 682 q 211 664 211 645 q 227 654 243 663 q 259 672 275 681 q 285 664 295 646 q 305 629 315 612 q 298 603 282 594 q 267 584 250 575 z"},"Y":{"x_min":0,"x_max":789,"ha":789,"o":"m 277 79 l 344 79 l 344 270 q 291 358 240 446 q 188 533 136 621 l 35 621 l 35 700 l 277 700 l 277 621 l 237 621 q 274 560 310 499 q 346 438 383 377 l 394 346 l 395 346 l 407 377 l 551 621 l 512 621 l 512 700 l 754 700 l 754 621 l 653 621 q 601 533 550 445 q 498 357 446 269 l 446 79 l 519 79 l 519 0 l 277 0 z"},"c":{"x_min":0,"x_max":397,"ha":397,"o":"m 360 34 q 334 14 302 2 q 271 -9 235 -9 q 193 -9 156 6 q 120 22 93 49 q 66 76 50 112 q 35 147 35 188 q 35 228 50 264 q 66 300 93 326 q 120 353 156 368 q 193 384 235 384 q 272 384 304 372 q 336 361 362 341 l 362 225 l 288 225 l 288 292 q 263 303 235 303 q 183 303 150 270 q 118 238 118 188 q 118 139 150 106 q 183 72 235 72 q 279 72 310 97 z"},"!":{"x_min":0,"x_max":201,"ha":201,"o":"m 100 0 q 80 0 64 15 q 48 30 48 53 q 48 76 64 90 q 80 105 100 105 q 119 105 135 90 q 151 76 151 53 q 151 30 135 15 q 119 0 100 0 z m 58 750 l 141 750 l 141 166 l 58 166 z"},"/":{"x_min":0,"x_max":380,"ha":380,"o":"m 17 -19 q 87 171 156 358 q 225 546 295 736 l 379 736 q 309 546 240 358 q 171 171 101 -19 z"},"[":{"x_min":0,"x_max":338,"ha":338,"o":"m 83 -149 l 83 746 l 275 746 l 275 665 l 166 665 l 166 -68 l 275 -68 l 275 -149 z"},"6":{"x_min":0,"x_max":520,"ha":520,"o":"m 134 209 q 134 181 144 156 q 154 132 172 114 q 190 95 214 84 q 238 73 265 73 q 293 73 318 84 q 342 95 360 114 q 379 132 390 156 q 401 181 401 209 q 401 237 390 262 q 379 286 360 304 q 342 322 318 332 q 293 343 265 343 q 238 343 214 332 q 190 322 172 304 q 154 286 144 262 q 134 237 134 209 z m 48 197 q 48 269 78 332 q 109 394 157 448 q 205 502 264 549 q 323 596 379 637 q 392 621 405 605 q 418 589 431 573 q 366 530 321 492 q 276 455 244 423 q 249 423 254 424 q 260 424 265 424 q 310 424 350 408 q 389 391 419 362 q 449 332 466 293 q 484 254 484 209 q 484 164 466 124 q 449 85 419 56 q 389 26 350 9 q 310 -8 265 -8 q 222 -8 184 8 q 145 24 116 52 q 86 79 68 116 q 50 154 48 197 z"},"r":{"x_min":0,"x_max":370,"ha":370,"o":"m 35 79 l 111 79 l 111 296 l 45 296 l 45 375 l 184 375 l 184 366 q 186 342 188 322 q 189 303 191 279 q 203 304 222 324 q 240 343 260 356 q 281 370 300 377 q 320 384 335 384 l 329 302 q 268 302 231 268 q 194 234 194 182 l 194 79 l 257 79 l 257 0 l 35 0 z"},"2":{"x_min":0,"x_max":519,"ha":519,"o":"m 253 81 l 417 81 l 417 174 l 496 174 l 496 0 l 53 0 q 115 62 173 120 q 231 179 276 234 q 321 288 348 340 q 375 391 375 438 q 375 475 363 501 q 351 527 332 544 q 314 561 292 569 q 271 577 253 577 q 215 577 191 564 q 167 551 153 532 q 139 513 134 492 q 128 471 128 455 q 128 422 138 396 q 148 371 167 351 l 117 300 q 100 311 86 330 q 73 348 64 370 q 54 391 49 414 q 44 436 44 455 q 44 495 58 532 q 71 569 98 597 q 124 625 163 642 q 202 658 253 658 q 299 658 337 641 q 375 624 402 596 q 429 567 444 530 q 459 492 459 450 q 459 400 442 354 q 424 307 396 261 q 367 215 330 170 q 293 126 253 81 z"},"{":{"x_min":0,"x_max":320,"ha":320,"o":"m 30 256 l 30 337 q 54 338 70 352 q 85 365 94 385 q 103 405 106 428 q 109 452 109 472 l 109 628 q 109 674 118 698 q 128 723 144 734 q 160 744 182 745 q 203 746 227 746 l 290 746 l 290 665 l 246 665 q 231 665 221 661 q 211 657 205 646 q 199 634 196 614 q 194 594 194 562 l 194 433 q 194 402 188 380 q 181 357 171 341 q 161 325 150 314 q 139 304 129 298 q 139 292 150 282 q 161 271 171 254 q 181 238 188 216 q 194 194 194 164 l 194 35 q 194 3 196 -18 q 199 -38 205 -49 q 211 -60 221 -64 q 231 -68 246 -68 l 290 -68 l 290 -149 l 227 -149 q 204 -149 182 -148 q 161 -147 144 -136 q 128 -126 118 -102 q 109 -78 109 -31 l 109 121 q 109 141 106 164 q 103 188 94 208 q 85 228 70 242 q 54 255 30 256 z"},"9":{"x_min":0,"x_max":525,"ha":525,"o":"m 376 419 q 376 447 366 472 q 356 496 338 514 q 320 533 296 544 q 272 555 245 555 q 217 555 192 544 q 168 533 150 514 q 131 496 120 472 q 109 447 109 419 q 109 391 120 366 q 131 342 150 324 q 168 306 192 296 q 217 285 245 285 q 272 285 296 296 q 320 306 338 324 q 356 342 366 366 q 376 391 376 419 z m 462 419 q 462 351 430 290 q 399 229 350 176 q 301 122 243 76 q 185 30 131 -9 q 118 7 105 23 q 92 39 79 55 q 144 98 189 136 q 234 173 266 205 q 261 204 256 204 q 250 204 245 204 q 200 204 160 220 q 121 237 91 266 q 61 296 44 335 q 26 374 26 419 q 26 464 44 504 q 61 543 91 572 q 121 602 160 619 q 200 636 245 636 q 290 636 330 618 q 369 601 398 572 q 428 542 445 502 q 462 463 462 419 z"}," ":{"x_min":0,"x_max":300,"ha":300,"o":""},"I":{"x_min":0,"x_max":312,"ha":312,"o":"m 35 79 l 114 79 l 114 621 l 35 621 l 35 700 l 277 700 l 277 621 l 197 621 l 197 79 l 277 79 l 277 0 l 35 0 z"},"H":{"x_min":0,"x_max":772,"ha":772,"o":"m 495 700 l 737 700 l 737 621 l 658 621 l 658 79 l 737 79 l 737 0 l 495 0 l 495 79 l 575 79 l 575 313 l 197 313 l 197 79 l 277 79 l 277 0 l 35 0 l 35 79 l 114 79 l 114 621 l 35 621 l 35 700 l 277 700 l 277 621 l 197 621 l 197 392 l 575 392 l 575 621 l 495 621 z"},"4":{"x_min":0,"x_max":529,"ha":529,"o":"m 244 79 l 319 79 l 319 183 l 37 183 l 403 658 l 403 264 l 500 264 l 500 183 l 403 183 l 403 79 l 486 79 l 486 0 l 244 0 z m 319 413 l 205 264 l 319 264 z"},"~":{"x_min":0,"x_max":489,"ha":489,"o":"m 271 481 q 256 497 244 502 q 233 507 219 507 q 205 507 187 498 q 169 489 166 461 l 121 464 q 122 484 131 500 q 140 517 153 528 q 166 540 182 546 q 197 552 212 552 q 235 552 254 543 q 272 534 289 519 q 304 503 316 498 q 327 493 341 493 q 348 493 356 495 q 365 497 373 502 q 381 507 386 516 q 392 525 394 539 l 439 536 q 438 516 429 500 q 420 483 407 472 q 394 461 378 455 q 363 449 348 449 q 325 449 306 458 q 288 467 271 481 z"},"D":{"x_min":0,"x_max":632,"ha":632,"o":"m 35 80 l 82 80 l 82 621 l 35 621 l 35 700 l 245 700 q 317 700 381 676 q 445 651 493 605 q 541 559 569 494 q 597 430 597 349 q 597 290 576 228 q 556 166 510 116 q 464 65 390 32 q 317 0 211 0 l 35 0 z m 165 621 l 165 80 l 235 80 q 294 80 345 99 q 396 118 434 154 q 471 189 492 238 q 514 288 514 350 q 514 412 492 462 q 471 512 434 548 q 396 583 345 602 q 294 621 235 621 z"},"^":{"x_min":0,"x_max":470,"ha":470,"o":"m 232 660 q 262 615 292 570 q 322 524 352 479 l 293 479 q 278 497 262 515 q 247 533 232 551 q 217 533 202 515 q 186 497 171 479 l 112 479 q 142 524 172 570 q 202 615 232 660 z"},"0":{"x_min":0,"x_max":616,"ha":616,"o":"m 37 327 q 37 403 58 464 q 80 526 116 569 q 153 612 202 635 q 251 658 307 658 q 363 658 412 634 q 461 610 497 566 q 533 523 553 461 q 573 399 573 323 q 573 247 550 186 q 526 125 488 82 q 450 38 402 15 q 354 -8 303 -8 q 252 -8 204 16 q 156 40 118 84 q 81 128 59 190 q 37 251 37 327 z m 121 326 q 121 273 135 227 q 149 181 174 147 q 199 113 232 93 q 265 73 303 73 q 340 73 374 92 q 408 111 434 145 q 459 179 474 225 q 489 271 489 324 q 489 360 480 404 q 471 448 450 486 q 428 525 393 551 q 358 577 307 577 q 256 577 220 552 q 185 526 163 488 q 141 450 131 406 q 121 362 121 326 z"},"F":{"x_min":0,"x_max":557,"ha":557,"o":"m 35 79 l 91 79 l 91 621 l 35 621 l 35 700 l 522 700 l 522 546 l 443 546 l 443 621 l 174 621 l 174 392 l 483 392 l 483 313 l 174 313 l 174 79 l 277 79 l 277 0 l 35 0 z"},"`":{"x_min":0,"x_max":200,"ha":200,"o":"m 33 612 q 56 579 78 546 q 100 512 123 479 l 64 479 q 35 512 6 546 q -22 579 -51 612 z"},"k":{"x_min":0,"x_max":527,"ha":527,"o":"m 291 79 l 302 79 q 287 99 272 120 q 257 140 243 160 l 194 114 l 194 79 l 257 79 l 257 0 l 35 0 l 35 79 l 111 79 l 111 671 l 45 671 l 45 750 l 194 750 l 194 211 l 285 296 l 248 296 l 248 375 l 449 375 l 449 296 l 387 296 q 365 276 344 255 q 323 234 301 214 q 325 180 350 146 q 374 113 399 79 l 492 79 l 492 0 l 291 0 z"},"u":{"x_min":0,"x_max":570,"ha":570,"o":"m 35 375 l 184 375 l 184 141 q 186 114 204 94 q 221 75 259 73 q 285 73 308 82 q 332 91 350 107 q 368 123 379 145 q 390 167 390 193 l 390 296 l 324 296 l 324 375 l 473 375 l 473 70 l 535 70 l 535 0 l 390 0 l 390 51 l 393 96 q 373 48 328 20 q 284 -9 230 -9 q 171 -9 137 22 q 103 53 101 103 l 101 296 l 35 296 z"},"]":{"x_min":0,"x_max":342,"ha":342,"o":"m 251 746 l 251 -149 l 59 -149 l 59 -68 l 168 -68 l 168 665 l 59 665 l 59 746 z"},"U":{"x_min":0,"x_max":729,"ha":729,"o":"m 35 700 l 277 700 l 277 621 l 195 621 l 195 229 q 195 191 208 162 q 220 132 242 112 q 265 92 296 82 q 327 71 364 71 q 401 71 432 82 q 463 92 486 112 q 508 132 521 162 q 534 191 534 229 l 534 621 l 452 621 l 452 700 l 694 700 l 694 621 l 617 621 l 617 226 q 617 169 598 125 q 578 81 544 52 q 510 22 464 7 q 418 -8 364 -8 q 310 -8 264 7 q 218 22 184 52 q 150 81 131 125 q 112 169 112 226 l 112 621 l 35 621 z"},"o":{"x_min":0,"x_max":471,"ha":471,"o":"m 35 188 q 35 228 50 264 q 66 300 93 326 q 120 353 156 368 q 193 384 235 384 q 277 384 314 368 q 351 353 378 326 q 405 300 420 264 q 436 228 436 188 q 436 147 420 112 q 405 76 378 49 q 351 22 314 6 q 277 -9 235 -9 q 193 -9 156 6 q 120 22 93 49 q 66 76 50 112 q 35 147 35 188 z m 118 187 q 118 163 127 142 q 136 121 152 106 q 167 90 188 81 q 209 72 233 72 q 257 72 278 81 q 299 90 315 106 q 331 121 340 142 q 349 163 349 187 q 349 211 340 232 q 331 253 315 269 q 299 285 278 294 q 257 303 233 303 q 209 303 188 294 q 167 285 152 269 q 136 253 127 232 q 118 211 118 187 z"},"N":{"x_min":0,"x_max":855,"ha":855,"o":"m 35 79 l 122 79 l 122 621 l 35 621 l 35 700 l 151 700 l 634 177 l 653 151 l 650 183 l 650 621 l 578 621 l 578 700 l 820 700 l 820 621 l 733 621 l 733 -32 l 221 512 l 202 538 l 205 506 l 205 79 l 277 79 l 277 0 l 35 0 z"},"+":{"x_min":0,"x_max":543,"ha":543,"o":"m 224 51 l 224 190 l 86 190 l 86 271 l 224 271 l 224 411 l 308 411 l 308 271 l 446 271 l 446 190 l 308 190 l 308 51 z"},"G":{"x_min":0,"x_max":609,"ha":609,"o":"m 574 298 l 574 40 q 534 17 488 4 q 443 -10 392 -10 q 318 -10 253 18 q 188 46 140 94 q 91 143 63 208 q 35 273 35 347 q 35 421 63 486 q 91 552 140 600 q 188 649 253 678 q 318 706 392 706 q 443 706 488 693 q 534 680 575 656 l 529 589 q 498 607 464 617 q 430 627 392 627 q 335 627 286 605 q 236 583 198 544 q 161 506 140 455 q 118 404 118 347 q 118 290 140 239 q 161 188 198 150 q 236 113 286 91 q 335 69 392 69 q 444 69 491 87 l 491 219 l 388 219 l 388 298 z"},"q":{"x_min":0,"x_max":551,"ha":551,"o":"m 277 -171 l 353 -171 l 353 19 q 355 24 358 28 q 360 33 362 38 q 359 34 349 26 q 339 19 323 11 q 307 3 285 -3 q 263 -9 236 -9 q 194 -9 157 6 q 120 22 93 49 q 66 76 50 112 q 35 148 35 188 q 35 228 50 264 q 66 299 93 326 q 120 353 157 368 q 194 384 236 384 q 262 384 284 376 q 307 369 324 360 q 341 350 351 340 q 361 331 363 328 q 363 339 365 351 q 367 363 367 375 l 516 375 l 516 296 l 436 296 l 436 -171 l 499 -171 l 499 -250 l 277 -250 z m 119 188 q 119 139 152 106 q 184 72 236 72 q 288 72 320 106 q 353 139 353 188 q 353 238 320 270 q 288 303 236 303 q 184 303 152 270 q 119 238 119 188 z"},"d":{"x_min":0,"x_max":547,"ha":547,"o":"m 363 20 l 363 40 q 362 37 353 29 q 344 21 328 12 q 311 4 288 -2 q 265 -9 236 -9 q 194 -9 157 6 q 120 22 93 49 q 66 76 50 112 q 35 148 35 188 q 35 228 50 264 q 66 299 93 326 q 120 353 157 368 q 194 384 236 384 q 261 384 284 377 q 306 370 323 361 q 340 352 350 343 q 361 334 363 331 q 361 339 358 346 q 355 354 353 362 l 353 671 l 287 671 l 287 750 l 436 750 l 436 79 l 512 79 l 512 0 l 363 0 z m 119 188 q 119 139 152 106 q 184 72 236 72 q 288 72 320 106 q 353 139 353 188 q 353 238 320 270 q 288 303 236 303 q 184 303 152 270 q 119 238 119 188 z"},"1":{"x_min":0,"x_max":290,"ha":290,"o":"m 23 79 l 102 79 l 102 569 l 34 569 l 34 650 l 186 650 l 186 79 l 265 79 l 265 0 l 23 0 z"},"5":{"x_min":0,"x_max":543,"ha":543,"o":"m 430 650 l 430 521 l 351 521 l 351 569 l 227 569 l 227 422 q 233 423 240 424 q 246 424 253 424 q 298 424 338 408 q 377 391 407 362 q 437 332 454 293 q 472 254 472 209 q 472 164 454 124 q 437 85 407 56 q 377 26 338 9 q 298 -8 253 -8 q 209 -8 170 8 q 132 24 103 53 l 164 109 q 181 92 204 82 q 227 73 253 73 q 281 73 306 84 q 330 95 348 114 q 367 132 378 156 q 389 181 389 209 q 389 237 378 262 q 367 286 348 304 q 330 322 306 332 q 281 343 253 343 q 218 343 189 332 q 160 320 143 292 l 143 650 z"}}}
